<svg width="290" height="240" viewBox="0 0 290 240" fill="none" xmlns="http://www.w3.org/2000/svg">
<g opacity="0.125">
<rect width="15" height="15" rx="4" fill="#649FF9"/>
<rect x="25" width="15" height="15" rx="4" fill="#649FF9"/>
<rect x="50" width="15" height="15" rx="4" fill="#649FF9"/>
<rect x="75" width="15" height="15" rx="4" fill="#649FF9"/>
<rect x="100" width="15" height="15" rx="4" fill="#649FF9"/>
<rect x="125" width="15" height="15" rx="4" fill="#649FF9"/>
<rect x="150" width="15" height="15" rx="4" fill="#649FF9"/>
<rect x="175" width="15" height="15" rx="4" fill="#649FF9"/>
<rect x="200" width="15" height="15" rx="4" fill="#649FF9"/>
<rect x="225" width="15" height="15" rx="4" fill="#649FF9"/>
<rect x="250" width="15" height="15" rx="4" fill="#649FF9"/>
<rect x="275" width="15" height="15" rx="4" fill="#649FF9"/>
<rect y="25" width="15" height="15" rx="4" fill="#649FF9"/>
<rect x="25" y="25" width="15" height="15" rx="4" fill="#649FF9"/>
<rect x="50" y="25" width="15" height="15" rx="4" fill="#649FF9"/>
<rect x="75" y="25" width="15" height="15" rx="4" fill="#649FF9"/>
<rect x="100" y="25" width="15" height="15" rx="4" fill="#649FF9"/>
<rect x="125" y="25" width="15" height="15" rx="4" fill="#649FF9"/>
<rect x="150" y="25" width="15" height="15" rx="4" fill="#649FF9"/>
<rect x="175" y="25" width="15" height="15" rx="4" fill="#649FF9"/>
<rect x="200" y="25" width="15" height="15" rx="4" fill="#649FF9"/>
<rect x="225" y="25" width="15" height="15" rx="4" fill="#649FF9"/>
<rect x="250" y="25" width="15" height="15" rx="4" fill="#649FF9"/>
<rect x="275" y="25" width="15" height="15" rx="4" fill="#649FF9"/>
<rect y="50" width="15" height="15" rx="4" fill="#649FF9"/>
<rect x="25" y="50" width="15" height="15" rx="4" fill="#649FF9"/>
<rect x="50" y="50" width="15" height="15" rx="4" fill="#649FF9"/>
<rect x="75" y="50" width="15" height="15" rx="4" fill="#649FF9"/>
<rect x="100" y="50" width="15" height="15" rx="4" fill="#649FF9"/>
<rect x="125" y="50" width="15" height="15" rx="4" fill="#649FF9"/>
<rect x="150" y="50" width="15" height="15" rx="4" fill="#649FF9"/>
<rect x="175" y="50" width="15" height="15" rx="4" fill="#649FF9"/>
<rect x="200" y="50" width="15" height="15" rx="4" fill="#649FF9"/>
<rect x="225" y="50" width="15" height="15" rx="4" fill="#649FF9"/>
<rect x="250" y="50" width="15" height="15" rx="4" fill="#649FF9"/>
<rect x="275" y="50" width="15" height="15" rx="4" fill="#649FF9"/>
<rect y="75" width="15" height="15" rx="4" fill="#649FF9"/>
<rect x="25" y="75" width="15" height="15" rx="4" fill="#649FF9"/>
<rect x="50" y="75" width="15" height="15" rx="4" fill="#649FF9"/>
<rect x="75" y="75" width="15" height="15" rx="4" fill="#649FF9"/>
<rect x="100" y="75" width="15" height="15" rx="4" fill="#649FF9"/>
<rect x="125" y="75" width="15" height="15" rx="4" fill="#649FF9"/>
<rect x="150" y="75" width="15" height="15" rx="4" fill="#649FF9"/>
<rect x="175" y="75" width="15" height="15" rx="4" fill="#649FF9"/>
<rect x="200" y="75" width="15" height="15" rx="4" fill="#649FF9"/>
<rect x="225" y="75" width="15" height="15" rx="4" fill="#649FF9"/>
<rect x="250" y="75" width="15" height="15" rx="4" fill="#649FF9"/>
<rect x="275" y="75" width="15" height="15" rx="4" fill="#649FF9"/>
<rect y="100" width="15" height="15" rx="4" fill="#649FF9"/>
<rect x="25" y="100" width="15" height="15" rx="4" fill="#649FF9"/>
<rect x="50" y="100" width="15" height="15" rx="4" fill="#649FF9"/>
<rect x="75" y="100" width="15" height="15" rx="4" fill="#649FF9"/>
<rect x="100" y="100" width="15" height="15" rx="4" fill="#649FF9"/>
<rect x="125" y="100" width="15" height="15" rx="4" fill="#649FF9"/>
<rect x="150" y="100" width="15" height="15" rx="4" fill="#649FF9"/>
<rect x="175" y="100" width="15" height="15" rx="4" fill="#649FF9"/>
<rect x="200" y="100" width="15" height="15" rx="4" fill="#649FF9"/>
<rect x="225" y="100" width="15" height="15" rx="4" fill="#649FF9"/>
<rect x="250" y="100" width="15" height="15" rx="4" fill="#649FF9"/>
<rect x="275" y="100" width="15" height="15" rx="4" fill="#649FF9"/>
<rect y="125" width="15" height="15" rx="4" fill="#649FF9"/>
<rect x="25" y="125" width="15" height="15" rx="4" fill="#649FF9"/>
<rect x="50" y="125" width="15" height="15" rx="4" fill="#649FF9"/>
<rect x="75" y="125" width="15" height="15" rx="4" fill="#649FF9"/>
<rect x="100" y="125" width="15" height="15" rx="4" fill="#649FF9"/>
<rect x="125" y="125" width="15" height="15" rx="4" fill="#649FF9"/>
<rect x="150" y="125" width="15" height="15" rx="4" fill="#649FF9"/>
<rect x="175" y="125" width="15" height="15" rx="4" fill="#649FF9"/>
<rect x="200" y="125" width="15" height="15" rx="4" fill="#649FF9"/>
<rect x="225" y="125" width="15" height="15" rx="4" fill="#649FF9"/>
<rect x="250" y="125" width="15" height="15" rx="4" fill="#649FF9"/>
<rect x="275" y="125" width="15" height="15" rx="4" fill="#649FF9"/>
<rect y="150" width="15" height="15" rx="4" fill="#649FF9"/>
<rect x="25" y="150" width="15" height="15" rx="4" fill="#649FF9"/>
<rect x="50" y="150" width="15" height="15" rx="4" fill="#649FF9"/>
<rect x="75" y="150" width="15" height="15" rx="4" fill="#649FF9"/>
<rect x="100" y="150" width="15" height="15" rx="4" fill="#649FF9"/>
<rect x="125" y="150" width="15" height="15" rx="4" fill="#649FF9"/>
<rect x="150" y="150" width="15" height="15" rx="4" fill="#649FF9"/>
<rect x="175" y="150" width="15" height="15" rx="4" fill="#649FF9"/>
<rect x="200" y="150" width="15" height="15" rx="4" fill="#649FF9"/>
<rect x="225" y="150" width="15" height="15" rx="4" fill="#649FF9"/>
<rect x="250" y="150" width="15" height="15" rx="4" fill="#649FF9"/>
<rect x="275" y="150" width="15" height="15" rx="4" fill="#649FF9"/>
<rect y="175" width="15" height="15" rx="4" fill="#649FF9"/>
<rect x="25" y="175" width="15" height="15" rx="4" fill="#649FF9"/>
<rect x="50" y="175" width="15" height="15" rx="4" fill="#649FF9"/>
<rect x="75" y="175" width="15" height="15" rx="4" fill="#649FF9"/>
<rect x="100" y="175" width="15" height="15" rx="4" fill="#649FF9"/>
<rect x="125" y="175" width="15" height="15" rx="4" fill="#649FF9"/>
<rect x="150" y="175" width="15" height="15" rx="4" fill="#649FF9"/>
<rect x="175" y="175" width="15" height="15" rx="4" fill="#649FF9"/>
<rect x="200" y="175" width="15" height="15" rx="4" fill="#649FF9"/>
<rect x="225" y="175" width="15" height="15" rx="4" fill="#649FF9"/>
<rect x="250" y="175" width="15" height="15" rx="4" fill="#649FF9"/>
<rect x="275" y="175" width="15" height="15" rx="4" fill="#649FF9"/>
<rect y="200" width="15" height="15" rx="4" fill="#649FF9"/>
<rect x="25" y="200" width="15" height="15" rx="4" fill="#649FF9"/>
<rect x="50" y="200" width="15" height="15" rx="4" fill="#649FF9"/>
<rect x="75" y="200" width="15" height="15" rx="4" fill="#649FF9"/>
<rect x="100" y="200" width="15" height="15" rx="4" fill="#649FF9"/>
<rect x="125" y="200" width="15" height="15" rx="4" fill="#649FF9"/>
<rect x="150" y="200" width="15" height="15" rx="4" fill="#649FF9"/>
<rect x="175" y="200" width="15" height="15" rx="4" fill="#649FF9"/>
<rect x="200" y="200" width="15" height="15" rx="4" fill="#649FF9"/>
<rect x="225" y="200" width="15" height="15" rx="4" fill="#649FF9"/>
<rect x="250" y="200" width="15" height="15" rx="4" fill="#649FF9"/>
<rect x="275" y="200" width="15" height="15" rx="4" fill="#649FF9"/>
<rect y="225" width="15" height="15" rx="4" fill="#649FF9"/>
<rect x="25" y="225" width="15" height="15" rx="4" fill="#649FF9"/>
<rect x="50" y="225" width="15" height="15" rx="4" fill="#649FF9"/>
<rect x="75" y="225" width="15" height="15" rx="4" fill="#649FF9"/>
<rect x="100" y="225" width="15" height="15" rx="4" fill="#649FF9"/>
<rect x="125" y="225" width="15" height="15" rx="4" fill="#649FF9"/>
<rect x="150" y="225" width="15" height="15" rx="4" fill="#649FF9"/>
<rect x="175" y="225" width="15" height="15" rx="4" fill="#649FF9"/>
<rect x="200" y="225" width="15" height="15" rx="4" fill="#649FF9"/>
<rect x="225" y="225" width="15" height="15" rx="4" fill="#649FF9"/>
<rect x="250" y="225" width="15" height="15" rx="4" fill="#649FF9"/>
<rect x="275" y="225" width="15" height="15" rx="4" fill="#649FF9"/>
</g>
</svg>
