<svg width="243" height="75" viewBox="0 0 243 75" fill="none" xmlns="http://www.w3.org/2000/svg">
<path d="M76.8 39.64C76.8 37.7733 77.08 36.1467 77.64 34.76C78.2267 33.3467 78.9867 32.1733 79.92 31.24C80.8533 30.3067 81.92 29.6 83.12 29.12C84.3467 28.64 85.6 28.4 86.88 28.4C89.8667 28.4 92.2267 29.32 93.96 31.16C95.6933 32.9733 96.56 35.6533 96.56 39.2C96.56 39.5467 96.5467 39.9333 96.52 40.36C96.4933 40.76 96.4667 41.12 96.44 41.44H82.92C83.0533 42.6667 83.6267 43.64 84.64 44.36C85.6533 45.08 87.0133 45.44 88.72 45.44C89.8133 45.44 90.88 45.3467 91.92 45.16C92.9867 44.9467 93.8533 44.6933 94.52 44.4L95.32 49.24C95 49.4 94.5733 49.56 94.04 49.72C93.5067 49.88 92.9067 50.0133 92.24 50.12C91.6 50.2533 90.9067 50.36 90.16 50.44C89.4133 50.52 88.6667 50.56 87.92 50.56C86.0267 50.56 84.3733 50.28 82.96 49.72C81.5733 49.16 80.4133 48.4 79.48 47.44C78.5733 46.4533 77.8933 45.2933 77.44 43.96C77.0133 42.6267 76.8 41.1867 76.8 39.64ZM90.8 37.36C90.7733 36.8533 90.68 36.36 90.52 35.88C90.3867 35.4 90.16 34.9733 89.84 34.6C89.5467 34.2267 89.16 33.92 88.68 33.68C88.2267 33.44 87.6533 33.32 86.96 33.32C86.2933 33.32 85.72 33.44 85.24 33.68C84.76 33.8933 84.36 34.1867 84.04 34.56C83.72 34.9333 83.4667 35.3733 83.28 35.88C83.12 36.36 83 36.8533 82.92 37.36H90.8ZM114.639 39.64C114.639 37.8 114.226 36.3333 113.399 35.24C112.573 34.12 111.346 33.56 109.719 33.56C109.186 33.56 108.693 33.5867 108.239 33.64C107.786 33.6667 107.413 33.7067 107.119 33.76V44.52C107.493 44.76 107.973 44.96 108.559 45.12C109.173 45.28 109.786 45.36 110.399 45.36C113.226 45.36 114.639 43.4533 114.639 39.64ZM120.719 39.48C120.719 41.1067 120.519 42.5867 120.119 43.92C119.719 45.2533 119.133 46.4 118.359 47.36C117.586 48.32 116.626 49.0667 115.479 49.6C114.333 50.1333 113.013 50.4 111.519 50.4C110.693 50.4 109.919 50.32 109.199 50.16C108.479 50 107.786 49.7733 107.119 49.48V57.4H101.159V29.68C101.693 29.52 102.306 29.3733 102.999 29.24C103.693 29.08 104.413 28.9467 105.159 28.84C105.933 28.7333 106.706 28.6533 107.479 28.6C108.279 28.52 109.039 28.48 109.759 28.48C111.493 28.48 113.039 28.7467 114.399 29.28C115.759 29.7867 116.906 30.52 117.839 31.48C118.773 32.4133 119.479 33.56 119.959 34.92C120.466 36.28 120.719 37.8 120.719 39.48ZM125.3 50V19.92L131.26 18.96V29.04C131.66 28.9067 132.167 28.7867 132.78 28.68C133.42 28.5467 134.033 28.48 134.62 28.48C136.327 28.48 137.74 28.72 138.86 29.2C140.007 29.6533 140.913 30.3067 141.58 31.16C142.273 32.0133 142.753 33.0267 143.02 34.2C143.313 35.3733 143.46 36.68 143.46 38.12V50H137.5V38.84C137.5 36.92 137.247 35.56 136.74 34.76C136.26 33.96 135.353 33.56 134.02 33.56C133.487 33.56 132.98 33.6133 132.5 33.72C132.047 33.8 131.633 33.8933 131.26 34V50H125.3ZM168.535 39.44C168.535 41.0933 168.295 42.6133 167.815 44C167.335 45.36 166.641 46.5333 165.735 47.52C164.828 48.48 163.735 49.2267 162.455 49.76C161.201 50.2933 159.788 50.56 158.215 50.56C156.668 50.56 155.255 50.2933 153.975 49.76C152.721 49.2267 151.641 48.48 150.735 47.52C149.828 46.5333 149.121 45.36 148.615 44C148.108 42.6133 147.855 41.0933 147.855 39.44C147.855 37.7867 148.108 36.28 148.615 34.92C149.148 33.56 149.868 32.4 150.775 31.44C151.708 30.48 152.801 29.7333 154.055 29.2C155.335 28.6667 156.721 28.4 158.215 28.4C159.735 28.4 161.121 28.6667 162.375 29.2C163.655 29.7333 164.748 30.48 165.655 31.44C166.561 32.4 167.268 33.56 167.775 34.92C168.281 36.28 168.535 37.7867 168.535 39.44ZM162.455 39.44C162.455 37.6 162.081 36.16 161.335 35.12C160.615 34.0533 159.575 33.52 158.215 33.52C156.855 33.52 155.801 34.0533 155.055 35.12C154.308 36.16 153.935 37.6 153.935 39.44C153.935 41.28 154.308 42.7467 155.055 43.84C155.801 44.9067 156.855 45.44 158.215 45.44C159.575 45.44 160.615 44.9067 161.335 43.84C162.081 42.7467 162.455 41.28 162.455 39.44ZM173.152 29.68C174.165 29.3867 175.472 29.12 177.072 28.88C178.672 28.6133 180.352 28.48 182.112 28.48C183.898 28.48 185.378 28.72 186.552 29.2C187.752 29.6533 188.698 30.3067 189.392 31.16C190.085 32.0133 190.578 33.0267 190.872 34.2C191.165 35.3733 191.312 36.68 191.312 38.12V50H185.352V38.84C185.352 36.92 185.098 35.56 184.592 34.76C184.085 33.96 183.138 33.56 181.752 33.56C181.325 33.56 180.872 33.5867 180.392 33.64C179.912 33.6667 179.485 33.7067 179.112 33.76V50H173.152V29.68ZM195.706 39.64C195.706 37.7733 195.986 36.1467 196.546 34.76C197.133 33.3467 197.893 32.1733 198.826 31.24C199.76 30.3067 200.826 29.6 202.026 29.12C203.253 28.64 204.506 28.4 205.786 28.4C208.773 28.4 211.133 29.32 212.866 31.16C214.6 32.9733 215.466 35.6533 215.466 39.2C215.466 39.5467 215.453 39.9333 215.426 40.36C215.4 40.76 215.373 41.12 215.346 41.44H201.826C201.96 42.6667 202.533 43.64 203.546 44.36C204.56 45.08 205.92 45.44 207.626 45.44C208.72 45.44 209.786 45.3467 210.826 45.16C211.893 44.9467 212.76 44.6933 213.426 44.4L214.226 49.24C213.906 49.4 213.48 49.56 212.946 49.72C212.413 49.88 211.813 50.0133 211.146 50.12C210.506 50.2533 209.813 50.36 209.066 50.44C208.32 50.52 207.573 50.56 206.826 50.56C204.933 50.56 203.28 50.28 201.866 49.72C200.48 49.16 199.32 48.4 198.386 47.44C197.48 46.4533 196.8 45.2933 196.346 43.96C195.92 42.6267 195.706 41.1867 195.706 39.64ZM209.706 37.36C209.68 36.8533 209.586 36.36 209.426 35.88C209.293 35.4 209.066 34.9733 208.746 34.6C208.453 34.2267 208.066 33.92 207.586 33.68C207.133 33.44 206.56 33.32 205.866 33.32C205.2 33.32 204.626 33.44 204.146 33.68C203.666 33.8933 203.266 34.1867 202.946 34.56C202.626 34.9333 202.373 35.3733 202.186 35.88C202.026 36.36 201.906 36.8533 201.826 37.36H209.706ZM228.426 35.36L232.586 28.96H238.746L231.546 39.08C233.146 41.08 234.599 43.0267 235.906 44.92C237.212 46.8133 238.252 48.5067 239.026 50H232.626C232.412 49.6 232.146 49.1067 231.826 48.52C231.506 47.9067 231.146 47.28 230.746 46.64C230.346 45.9733 229.919 45.32 229.466 44.68C229.039 44.0133 228.612 43.4133 228.186 42.88C227.786 43.3867 227.372 43.9467 226.946 44.56C226.546 45.1733 226.159 45.8 225.786 46.44C225.412 47.0533 225.039 47.6667 224.666 48.28C224.319 48.8933 224.012 49.4667 223.746 50H217.666C217.986 49.3333 218.426 48.5467 218.986 47.64C219.546 46.7333 220.146 45.8 220.786 44.84C221.452 43.8533 222.146 42.88 222.866 41.92C223.586 40.9333 224.292 40.0133 224.986 39.16C223.786 37.48 222.586 35.7867 221.386 34.08C220.186 32.3467 218.999 30.64 217.826 28.96H224.266L228.426 35.36Z" fill="#343434"/>
<mask id="mask0_311_29" style="mask-type:alpha" maskUnits="userSpaceOnUse" x="0" y="0" width="75" height="75">
<rect width="75" height="75" fill="#D9D9D9"/>
</mask>
<g mask="url(#mask0_311_29)">
<circle r="24.8199" transform="matrix(0.859406 -0.511293 -0.35576 0.934578 40.3428 41.2475)" fill="white" stroke="#343434" stroke-width="10"/>
<circle r="24.8199" transform="matrix(0.859406 -0.511293 -0.35576 0.934578 33.8677 34.4314)" fill="white" stroke="#A33BC8" stroke-width="10"/>
</g>
</svg>
